<svg xmlns="http://www.w3.org/2000/svg" viewBox="0 0 180 180" width="180" height="180">
  <defs>
    <linearGradient id="appleGrad" x1="0%" y1="0%" x2="100%" y2="100%">
      <stop offset="0%" style="stop-color:#06b6d4"/>
      <stop offset="50%" style="stop-color:#3b82f6"/>
      <stop offset="100%" style="stop-color:#8b5cf6"/>
    </linearGradient>
  </defs>
  
  <rect width="180" height="180" rx="40" fill="#1e293b"/>
  
  <!-- Lightning bolt -->
  <path d="M100 25L70 90h20l-10 65 40-65h-20l10-65z" fill="url(#appleGrad)" stroke="#fff" stroke-width="2"/>
  
  <!-- Circuit traces -->
  <path d="M20 60h20M140 60h20M20 120h20M140 120h20" stroke="url(#appleGrad)" stroke-width="3" opacity="0.7"/>
  <circle cx="40" cy="60" r="4" fill="url(#appleGrad)"/>
  <circle cx="140" cy="60" r="4" fill="url(#appleGrad)"/>
  <circle cx="40" cy="120" r="4" fill="url(#appleGrad)"/>
  <circle cx="140" cy="120" r="4" fill="url(#appleGrad)"/>
  
  <!-- Logic gates symbols -->
  <path d="M30 30h15v15h-15z" fill="none" stroke="url(#appleGrad)" stroke-width="2" opacity="0.5"/>
  <path d="M135 30h15v15h-15z" fill="none" stroke="url(#appleGrad)" stroke-width="2" opacity="0.5"/>
  <path d="M30 135h15v15h-15z" fill="none" stroke="url(#appleGrad)" stroke-width="2" opacity="0.5"/>
  <path d="M135 135h15v15h-15z" fill="none" stroke="url(#appleGrad)" stroke-width="2" opacity="0.5"/>
</svg>
